<?xml version="1.0" encoding="UTF-8"?>
<svg width="48px" height="48px" viewBox="0 0 48 48" version="1.1" xmlns="http://www.w3.org/2000/svg" xmlns:xlink="http://www.w3.org/1999/xlink">
    <title>编组 3</title>
    <defs>
        <linearGradient x1="87.1452332%" y1="20.3417634%" x2="14.981842%" y2="83.7210563%" id="linearGradient-1">
            <stop stop-color="#2FE4C9" offset="0%"></stop>
            <stop stop-color="#39B5F1" offset="20.8031573%"></stop>
            <stop stop-color="#6C83E1" offset="58.4753118%"></stop>
            <stop stop-color="#CF489D" offset="100%"></stop>
        </linearGradient>
    </defs>
    <g id="logo" stroke="none" stroke-width="1" fill="none" fill-rule="evenodd">
        <g id="编组-3">
            <rect id="矩形" x="0" y="0" width="48" height="48"></rect>
            <path d="M24,1 C37.254834,1 48,11.745166 48,25 C48,34.646228 42.3091179,42.9632792 34.1015922,46.7769153 L34.1013172,46.7769153 C32.1686893,45.4326763 30.7569303,43.9924754 29.8660781,42.4558328 C28.4303438,39.9793328 27.6482813,38.0199109 27.515625,35.0147547 C27.4896364,34.4261332 27.5454684,33.8841359 27.6831136,33.3887842 C28.0935371,32.811611 28.5553875,32.2647109 29.0662969,31.7538016 C29.7452373,31.0748611 30.4877313,30.4825558 31.2803991,29.9825019 C31.6416993,29.8194674 32.0359292,29.7343797 32.4375,29.7343797 C33.9728044,29.7343797 35.2247373,30.9709596 35.2496225,32.500443 L35.25,32.5468797 L35.2499531,33.5821094 L34.3125,33.5821328 L39,38.2696328 L39,33.5821328 L38.0624531,33.5821094 L38.0625,32.5468797 C38.0625,30.8000002 37.2620594,29.2365475 36.0086135,28.2041195 C36.6663014,28.0999472 37.3368846,28.0468797 38.015625,28.0468797 C39.0701856,28.0468797 40.108649,28.1751225 41.116806,28.4290901 L41.1854969,28.4466009 L40.7343703,29.6860797 L46.7423859,26.8844547 L42.3375891,25.2812359 L42.1511072,25.7935442 C40.8103492,25.4221019 39.4242715,25.2343797 38.015625,25.2343797 C35.928,25.2343797 33.9020156,25.6435516 31.9940625,26.4505516 C31.2804416,26.7523787 30.5950416,27.1046263 29.940533,27.5055314 C29.8171344,27.5666862 29.6958065,27.6324909 29.5768153,27.7028711 L29.5175156,27.7384422 L28.5983669,28.2973668 C30.6838726,24.4468249 34.0254318,21.3491355 38.0950985,19.5829254 L38.2186441,19.529812 L38.4545859,20.8677344 L42.2568984,15.4375 L37.6406484,16.2514844 L37.7189529,16.6959835 C37.1556534,16.9167161 36.6036694,17.1594656 36.0641579,17.4233267 C35.9466588,16.1977736 35.4325469,15.0509736 34.5788766,14.1355234 C33.8330134,13.3357165 32.89291,12.7821309 31.8574337,12.5198707 L31.8170424,12.5098003 L32.3517609,11.0407047 L26.3437453,13.8423297 L30.7485422,15.4455484 L30.843481,15.1845764 C31.4859921,15.2706287 32.0740209,15.5733038 32.5219547,16.0536953 C33.0342984,16.6031172 33.3020484,17.3191328 33.2757984,18.0699766 C33.2612351,18.4864489 33.1553714,18.8918407 32.9670179,19.2577006 C29.6911556,21.5712307 27.0682537,24.7330452 25.4091199,28.4024937 L25.3591385,28.5138442 L25.3593281,8.734375 L26.296875,8.734375 L23.953125,4.046875 L21.609375,8.734375 L22.5468281,8.734375 L22.5470025,28.4889719 C20.8908822,24.7844424 18.2542407,21.5923534 14.9546908,19.2611249 C14.7654415,18.8942795 14.6589764,18.4877175 14.6443688,18.0699766 C14.5941562,16.6312597 15.6390742,15.4036203 17.0288717,15.1915976 L17.0710915,15.1854844 L17.1657094,15.4455109 L21.5705531,13.8422922 L15.5625375,11.0406672 L16.0981513,12.5122934 C13.8091752,13.0806559 12.0868037,15.0489914 11.8565645,17.424768 C11.3598869,17.1820084 10.8527608,16.9569577 10.3359775,16.7504834 L10.2250908,16.7065235 L10.3052484,16.2514844 L5.68895156,15.4375 L9.49126406,20.8677344 L9.72524029,19.5411806 C13.8011133,21.283981 17.154943,24.3593774 19.2608385,28.1909954 L19.324271,28.3073359 L18.3887344,27.7384422 C18.2720556,27.6674672 18.1530569,27.6009383 18.0320068,27.5389452 C17.3611034,27.1241959 16.6574985,26.7607463 15.9240938,26.4505516 C14.0161406,25.6435516 11.9902031,25.2343797 9.90253125,25.2343797 C8.53336573,25.2343797 7.18552174,25.4117266 5.87989016,25.7627453 L5.80739864,25.782425 L5.62354688,25.2772328 L1.21875,26.8804516 L7.22676563,29.6820297 L6.77327513,28.4361971 C7.79022386,28.1775151 8.83817883,28.0468797 9.90253125,28.0468797 C10.577851,28.0468797 11.2450956,28.0994137 11.8995249,28.2024156 C10.6575718,29.2245897 9.85982086,30.7678576 9.84399003,32.4945014 L9.84375,32.5468797 L9.84370313,33.5821094 L9.328125,33.5821328 L9.328125,38.2696328 L14.015625,33.5821328 L12.6562031,33.5821094 L12.65625,32.5468797 C12.65625,30.9960672 13.9179375,29.7343797 15.46875,29.7343797 C15.8870226,29.7343797 16.2973309,29.8266924 16.6707454,30.0033062 C17.4510103,30.4990037 18.1823362,31.0842784 18.8518594,31.7538016 C19.3244176,32.2263598 19.7550056,32.7297082 20.1417982,33.259249 C20.5004837,34.523831 20.4015935,36.1502827 19.8451277,38.1386103 L19.8198307,38.2282065 L19.8198307,38.2282065 L19.762636,38.428199 L19.7146563,38.5934723 L19.6831052,38.7006959 L19.6518364,38.8056809 L19.6207932,38.9085372 L19.589919,39.0093746 L19.5591573,39.1083033 L19.5284514,39.205433 L19.4977448,39.3008737 L19.4823735,39.347995 L19.4515596,39.4411083 C19.4344064,39.4924349 19.4171874,39.5431068 19.3998589,39.5932088 L19.3737785,39.6679449 L19.3422189,39.7565895 L19.310319,39.8442046 C19.0921139,40.4367365 18.8463735,40.9654904 18.4930073,41.5860054 L18.4615466,41.6409988 L18.4078376,41.7337774 L18.3803707,41.7807219 L18.3803707,41.7807219 L18.3524862,41.8280548 L18.295436,41.923941 C18.2761298,41.9561834 18.2565311,41.9887123 18.2366303,42.0215459 L18.1760126,42.1209794 L18.0976059,42.2480103 L18.0976059,42.2480103 L18.0815645,42.2737989 L18.0161689,42.3782849 L17.931591,42.5120178 L17.931591,42.5120178 L17.9142888,42.5391983 L17.8257958,42.6773648 L17.8257958,42.6773648 L17.7339188,42.8194619 L17.6579063,42.9361141 C17.049698,43.8665204 16.1664701,44.8313366 15.0082561,45.8305627 L14.95698,45.8746685 L14.8577035,45.9593295 C14.6504374,46.1350927 14.434713,46.3119144 14.2105308,46.4897944 L14.1260659,46.556549 L14.0163032,46.6425222 C13.9660067,46.6817211 13.9153023,46.7209711 13.86419,46.7602721 L13.8637949,46.7607987 C5.67488668,42.9398834 0,34.6326621 0,25 C0,11.745166 10.745166,1 24,1 Z" id="路径" fill="url(#linearGradient-1)"></path>
        </g>
    </g>
</svg>